<?xml version="1.0" encoding="utf-8"?>
<!-- Generator: Adobe Illustrator 16.0.3, SVG Export Plug-In . SVG Version: 6.00 Build 0)  -->
<!DOCTYPE svg PUBLIC "-//W3C//DTD SVG 1.1//EN" "http://www.w3.org/Graphics/SVG/1.1/DTD/svg11.dtd">
<svg version="1.1" id="Vrstva_1" xmlns="http://www.w3.org/2000/svg" xmlns:xlink="http://www.w3.org/1999/xlink" x="0px" y="0px"
	 width="198.43px" height="61.5px" viewBox="0 0 198.43 61.5" enable-background="new 0 0 198.43 61.5" xml:space="preserve">
<path fill-rule="evenodd" clip-rule="evenodd" fill="#808080" d="M21.396,34.276c-0.09,0.344-0.255,0.688-0.252,1.03
	c0.005,0.59-0.15,0.883-0.809,0.891c-3.708,0.049-6.884-1.074-8.813-4.416c-2.069-3.584-1.974-7.288,0.237-10.783
	c2.044-3.232,5.202-4.383,8.919-4.205c0.104,0.005,0.206,0.07,0.46,0.163c-0.528,1.645,0.855,1.98,1.875,2.586
	c1.019,0.604,2.048,1.192,3.09,1.798c1.282-0.868,1.81-0.834,2.856,0.211c1.466-1.088,1.823-1.094,3.062-0.048
	c1.631-1.042,1.906-1.041,3.025-0.016c0.526-0.249,1.026-0.66,1.54-0.679c0.521-0.019,1.057,0.351,1.708,0.597
	c1.498-0.951,1.762-0.946,2.97,0.17c1.321-1.123,1.708-1.132,3.056-0.068c1.408-1.039,1.807-1.036,3.072,0.023
	c1.338-1.076,1.808-1.073,3.038,0.016c1.37-1.091,1.806-1.091,2.987-0.063c0.55-0.257,1.087-0.461,1.569-0.755
	c0.234-0.142,0.487-0.434,0.523-0.688c0.105-0.733,0.093-1.483,0.15-2.225c0.265-3.452,1.99-5.852,5.214-7.126
	c0.894-0.353,1.821-0.693,2.762-0.824c0.489-0.068,1.223,0.193,1.514,0.565c0.253,0.323,0.229,1.121,0,1.52
	c-1.235,2.153-1.105,4.514-1.161,6.843c-0.005,0.218,0.463,0.623,0.731,0.641c1.111,0.075,2.233-0.015,3.345,0.059
	c0.483,0.032,1.183,0.173,1.379,0.505c0.488,0.825,1.153,0.892,1.958,0.896c8.333,0.035,16.667,0.165,24.999,0.112
	c14.103-0.088,28.188-0.669,42.248-1.807c14.806-1.199,29.51-3.088,43.847-7.141c3.604-1.019,7.104-2.412,10.65-3.635
	c0.339-0.117,0.672-0.251,1.14-0.426c-0.355,2.867-1.224,5.406-2.591,7.776c-2.897,5.023-7.334,8.332-12.355,10.944
	c-6.392,3.326-13.271,5.199-20.299,6.548c-12.33,2.367-24.805,2.896-37.323,2.764c-9.903-0.105-19.791-0.637-29.606-1.931
	c-6.99-0.922-13.92-2.298-20.876-3.473c-0.363-0.06-0.722-0.144-1.077-0.215c-0.753,2.176-0.822,2.224-3.166,2.224
	c-1.297,0-2.594,0-3.892,0c-2.451,10.864-8.82,17.736-20.172,18.145C31.664,51.183,24.527,45.238,21.396,34.276z M70.725,23.293
	c0,1.383,0.035,2.718-0.015,4.049c-0.026,0.705,0.25,0.978,0.917,1.106c1.568,0.299,3.115,0.714,4.685,1.002
	c15.88,2.917,31.912,4.251,48.041,4.396c11.243,0.1,22.448-0.534,33.538-2.557c7.386-1.346,14.572-3.332,21.204-6.956
	c4.854-2.652,8.961-6.118,11.489-11.178c0.188-0.376,0.316-0.781,0.469-1.166c-0.162-0.071-0.201-0.104-0.226-0.097
	c-1.021,0.34-2.036,0.689-3.058,1.025c-13.649,4.492-27.793,6.381-42.003,7.831c-7.246,0.739-14.522,1.217-21.795,1.651
	c-14.598,0.872-29.213,1.067-43.835,0.897C77.058,23.263,73.977,23.293,70.725,23.293z M24.667,34.05
	c0.959,1.578,1.924,3.163,2.887,4.748c-0.103,0.102-0.206,0.205-0.308,0.308c-0.795-0.932-1.59-1.864-2.385-2.798
	c-0.057,0.476,0.042,0.824,0.171,1.161c3.545,9.239,14.72,13.742,24.284,9.789c6.564-2.715,10.377-7.803,11.353-14.624
	c0.938-6.552,1.084-13.218,1.581-19.856c-2.365,0.34-4.235,2.611-4.363,5.005c-0.164,3.076-0.315,6.161-0.69,9.215
	c-0.372,3.026-1.211,5.955-2.727,8.645c0.32-1.21,0.727-2.396,1.016-3.611c0.281-1.185,0.44-2.398,0.653-3.6
	c-0.101-0.024-0.202-0.049-0.302-0.073c-0.2,0.383-0.402,0.766-0.601,1.15c-1.781,3.438-4.447,5.92-8.039,7.374
	c-4.672,1.893-9.468,1.893-14.209,0.486C30.2,36.543,27.56,35.223,24.667,34.05z M27.127,32.372c0.16,0.129,0.263,0.235,0.386,0.306
	c4.622,2.66,9.586,3.783,14.891,3.187c2.938-0.33,5.628-1.35,7.869-3.361c0.127-0.115,0.207-0.28,0.348-0.476
	c-0.278-0.243-0.513-0.449-0.585-0.514c-0.701,0.266-1.24,0.642-1.762,0.62c-0.516-0.021-1.015-0.443-1.542-0.7
	c-1.118,1.024-1.404,1.027-3.034-0.001c-1.241,1.046-1.712,1.041-2.958-0.03c-1.36,1.071-1.685,1.073-3.083,0.021
	c-1.395,1.051-1.761,1.045-3.079-0.043c-1.247,1.091-1.597,1.097-3.068,0.046c-1.345,1.042-1.747,1.039-3.049-0.015
	C28.043,31.714,27.627,32.013,27.127,32.372z M18.865,20.828c-2.815,0.471-4.391,2.113-5.301,4.549
	c0.146-2.857,1.708-4.729,4.252-6.062c-3.167,0.237-5.654,3.882-5.403,7.687c0.259,3.916,3.156,7.028,6.452,6.842
	C18.865,29.566,18.865,25.282,18.865,20.828z M63.433,30.347c1.246,0,2.315-0.032,3.381,0.011c0.697,0.028,0.896-0.257,0.888-0.916
	c-0.026-2.265-0.032-4.53,0.004-6.793c0.012-0.719-0.215-1.082-0.946-0.942c-0.67,0.127-1.707-0.533-1.771,0.935
	c-0.072,1.682-0.315,3.356-0.484,5.033c-0.052,0.006-0.105,0.011-0.157,0.016c-0.106-0.59-0.212-1.181-0.318-1.771
	c-0.066-0.001-0.132-0.002-0.198-0.003C63.705,27.323,63.578,28.731,63.433,30.347z M21.772,31.2
	c0.795-0.509,1.779-0.468,1.772-1.608c-0.013-2.083,0.001-4.167-0.012-6.25c-0.001-0.235-0.107-0.47-0.165-0.706
	c-0.09,0.011-0.18,0.023-0.27,0.035c-0.161,1.287-0.321,2.573-0.481,3.86c-0.051-0.005-0.103-0.011-0.153-0.016
	c-0.182-0.814-0.364-1.628-0.546-2.442c-0.048,0.009-0.097,0.017-0.145,0.026C21.772,26.391,21.772,28.684,21.772,31.2z
	 M52.393,22.631c-1.539,1.575-3.485,6.188-3.23,7.66C50.64,27.886,51.763,25.494,52.393,22.631z M43.048,22.836
	c-1.614,2.188-2.675,4.621-3.189,7.291C41.507,27.958,42.526,25.51,43.048,22.836z M33.719,30.163
	c1.607-2.199,2.729-4.609,3.176-7.307C35.288,25.051,34.264,27.501,33.719,30.163z M30.703,30.106
	c1.629-2.217,2.693-4.677,3.175-7.389C32.288,24.951,31.175,27.391,30.703,30.106z M42.954,30.066
	c1.647-2.205,2.673-4.682,3.203-7.375C44.533,24.902,43.457,27.357,42.954,30.066z M36.63,30.238
	c1.405-1.221,3.425-5.951,3.25-7.544C38.349,25.047,37.308,27.433,36.63,30.238z M49.15,22.856
	c-1.626,2.203-2.661,4.674-3.195,7.363C47.553,28.006,48.668,25.577,49.15,22.856z M27.294,29.973
	c0.113,0.059,0.226,0.118,0.338,0.177c1.356-1.422,3.312-6.057,2.775-7.392C29.37,25.163,28.332,27.568,27.294,29.973z
	 M27.686,22.894c-1.595,2.147-2.621,4.542-3.087,7.179C26.156,27.909,27.263,25.55,27.686,22.894z M54.993,23.548
	c-0.142-0.059-0.285-0.118-0.427-0.176c-0.906,2.194-1.812,4.389-2.717,6.584c0.139,0.057,0.277,0.114,0.415,0.171
	C53.684,28.145,54.468,25.9,54.993,23.548z"/>
<path fill-rule="evenodd" clip-rule="evenodd" fill="#FFFFFF" d="M70.725,23.293c3.252,0,6.333-0.03,9.413,0.005
	c14.622,0.17,29.237-0.025,43.835-0.897c7.272-0.435,14.549-0.912,21.795-1.651c14.21-1.45,28.354-3.339,42.003-7.831
	c1.021-0.336,2.037-0.685,3.058-1.025c0.024-0.008,0.063,0.026,0.226,0.097c-0.152,0.384-0.281,0.79-0.469,1.166
	c-2.528,5.061-6.636,8.526-11.489,11.178c-6.632,3.624-13.818,5.61-21.204,6.956c-11.09,2.022-22.295,2.656-33.538,2.557
	c-16.129-0.145-32.161-1.479-48.041-4.396c-1.57-0.288-3.117-0.703-4.685-1.002c-0.667-0.128-0.943-0.402-0.917-1.106
	C70.759,26.011,70.725,24.677,70.725,23.293z M180.647,19.716c-0.335,0.135-0.672,0.265-1.003,0.406
	c-4.628,1.968-9.386,3.545-14.283,4.691c-12.02,2.813-24.244,3.762-36.54,3.732c-8.85-0.022-17.7-0.358-26.547-0.684
	c-5.945-0.218-11.881-0.671-17.823-1c-2.965-0.164-5.933-0.284-8.9-0.423c0.463,0.174,0.926,0.311,1.399,0.379
	c6.916,1,13.815,2.139,20.752,2.955c15.775,1.857,31.589,2.549,47.434,0.844c8.529-0.917,16.905-2.541,24.955-5.603
	C173.777,23.613,177.373,22.022,180.647,19.716z"/>
<path fill-rule="evenodd" clip-rule="evenodd" fill="#FFFFFF" d="M24.667,34.05c2.893,1.173,5.533,2.493,8.319,3.319
	c4.741,1.406,9.537,1.406,14.209-0.486c3.592-1.454,6.258-3.937,8.039-7.374c0.199-0.385,0.401-0.767,0.601-1.15
	c0.101,0.024,0.201,0.049,0.302,0.073c-0.213,1.202-0.372,2.415-0.653,3.6c-0.289,1.216-0.696,2.401-1.016,3.611
	c1.516-2.689,2.355-5.619,2.727-8.645c0.375-3.054,0.527-6.139,0.69-9.215c0.127-2.395,1.998-4.666,4.363-5.005
	c-0.496,6.638-0.643,13.304-1.581,19.856c-0.976,6.821-4.788,11.909-11.353,14.624c-9.564,3.953-20.739-0.55-24.284-9.789
	c-0.129-0.337-0.228-0.686-0.171-1.161c0.795,0.934,1.59,1.866,2.385,2.798c0.103-0.103,0.206-0.206,0.308-0.308
	C26.591,37.213,25.626,35.628,24.667,34.05z"/>
<path fill-rule="evenodd" clip-rule="evenodd" fill="#FFFFFF" d="M18.865,20.828c0,4.454,0,8.738,0,13.017
	c-3.296,0.187-6.193-2.926-6.452-6.842c-0.251-3.805,2.235-7.45,5.403-7.687c-2.543,1.332-4.106,3.205-4.252,6.062
	C14.474,22.941,16.05,21.299,18.865,20.828z"/>
<path fill-rule="evenodd" clip-rule="evenodd" fill="#FFFFFF" d="M63.433,30.347c0.146-1.616,0.272-3.024,0.399-4.431
	c0.066,0.001,0.132,0.002,0.198,0.003c0.106,0.59,0.212,1.181,0.318,1.771c0.052-0.005,0.105-0.01,0.157-0.016
	c0.169-1.677,0.412-3.351,0.484-5.033c0.063-1.468,1.101-0.807,1.771-0.935c0.731-0.14,0.958,0.223,0.946,0.942
	c-0.036,2.264-0.03,4.529-0.004,6.793c0.008,0.659-0.191,0.944-0.888,0.916C65.748,30.315,64.679,30.347,63.433,30.347z"/>
<path fill-rule="evenodd" clip-rule="evenodd" fill="#FFFFFF" d="M21.772,31.2c0-2.516,0-4.809,0-7.102
	c0.048-0.009,0.097-0.017,0.145-0.026c0.182,0.814,0.364,1.628,0.546,2.442c0.051,0.005,0.102,0.011,0.153,0.016
	c0.161-1.287,0.321-2.573,0.481-3.86c0.09-0.012,0.18-0.023,0.27-0.035c0.058,0.235,0.163,0.47,0.165,0.706
	c0.014,2.083,0,4.167,0.012,6.25C23.552,30.732,22.568,30.691,21.772,31.2z"/>
<path fill-rule="evenodd" clip-rule="evenodd" fill="#FFFFFF" d="M52.393,22.631c-0.629,2.863-1.753,5.254-3.23,7.66
	C48.907,28.82,50.854,24.207,52.393,22.631z"/>
<path fill-rule="evenodd" clip-rule="evenodd" fill="#FFFFFF" d="M43.048,22.836c-0.522,2.674-1.542,5.123-3.189,7.291
	C40.374,27.457,41.435,25.024,43.048,22.836z"/>
<path fill-rule="evenodd" clip-rule="evenodd" fill="#FFFFFF" d="M33.719,30.163c0.544-2.662,1.569-5.112,3.176-7.307
	C36.448,25.554,35.326,27.964,33.719,30.163z"/>
<path fill-rule="evenodd" clip-rule="evenodd" fill="#FFFFFF" d="M30.703,30.106c0.472-2.716,1.584-5.156,3.175-7.389
	C33.396,25.429,32.332,27.89,30.703,30.106z"/>
<path fill-rule="evenodd" clip-rule="evenodd" fill="#FFFFFF" d="M42.954,30.066c0.503-2.709,1.579-5.164,3.203-7.375
	C45.626,25.384,44.601,27.861,42.954,30.066z"/>
<path fill-rule="evenodd" clip-rule="evenodd" fill="#FFFFFF" d="M36.63,30.238c0.678-2.806,1.719-5.191,3.25-7.544
	C40.055,24.287,38.035,29.018,36.63,30.238z"/>
<path fill-rule="evenodd" clip-rule="evenodd" fill="#FFFFFF" d="M49.15,22.856c-0.482,2.721-1.598,5.15-3.195,7.363
	C46.489,27.53,47.524,25.059,49.15,22.856z"/>
<path fill-rule="evenodd" clip-rule="evenodd" fill="#FFFFFF" d="M27.294,29.973c1.038-2.405,2.076-4.81,3.114-7.215
	c0.536,1.335-1.419,5.97-2.775,7.392C27.52,30.091,27.407,30.032,27.294,29.973z"/>
<path fill-rule="evenodd" clip-rule="evenodd" fill="#FFFFFF" d="M27.686,22.894c-0.422,2.656-1.529,5.016-3.087,7.179
	C25.065,27.435,26.091,25.041,27.686,22.894z"/>
<path fill-rule="evenodd" clip-rule="evenodd" fill="#FFFFFF" d="M54.993,23.548c-0.524,2.352-1.309,4.597-2.729,6.579
	c-0.138-0.058-0.276-0.115-0.415-0.171c0.906-2.195,1.812-4.39,2.717-6.584C54.708,23.43,54.851,23.489,54.993,23.548z"/>
<path fill-rule="evenodd" clip-rule="evenodd" fill="#CCCCCC" d="M180.647,19.716c-3.274,2.306-6.87,3.897-10.556,5.298
	c-8.05,3.063-16.426,4.686-24.955,5.603c-15.845,1.705-31.658,1.014-47.434-0.844c-6.938-0.816-13.837-1.955-20.752-2.955
	c-0.473-0.069-0.936-0.205-1.399-0.379c2.967,0.14,5.935,0.26,8.9,0.423c5.941,0.329,11.878,0.782,17.823,1
	c8.847,0.325,17.697,0.662,26.547,0.684c12.296,0.03,24.521-0.92,36.54-3.732c4.897-1.146,9.655-2.723,14.283-4.691
	C179.976,19.981,180.313,19.851,180.647,19.716z"/>
</svg>
